<mxfile host="app.diagrams.net" agent="Mozilla/5.0 (Windows NT 10.0; Win64; x64; rv:130.0) Gecko/20100101 Firefox/130.0" version="24.7.16">
  <diagram name="Page-1" id="BsvyeF4KI63PfdyFnDuq">
    <mxGraphModel grid="1" page="0" gridSize="10" guides="1" tooltips="1" connect="1" arrows="1" fold="1" pageScale="1" pageWidth="827" pageHeight="1169" math="0" shadow="0">
      <root>
        <mxCell id="0" />
        <mxCell id="1" parent="0" />
        <mxCell id="UY9DITYKQAompn-UwXVe-24" style="rounded=0;orthogonalLoop=1;jettySize=auto;html=1;entryX=0;entryY=0.5;entryDx=0;entryDy=0;endArrow=none;endFill=0;exitX=1;exitY=1;exitDx=0;exitDy=0;exitPerimeter=0;" edge="1" parent="1" source="UY9DITYKQAompn-UwXVe-1" target="UY9DITYKQAompn-UwXVe-3">
          <mxGeometry relative="1" as="geometry" />
        </mxCell>
        <mxCell id="UY9DITYKQAompn-UwXVe-25" style="rounded=0;orthogonalLoop=1;jettySize=auto;html=1;entryX=0;entryY=0.5;entryDx=0;entryDy=0;exitX=1;exitY=0.3333333333333333;exitDx=0;exitDy=0;exitPerimeter=0;endArrow=none;endFill=0;" edge="1" parent="1" source="UY9DITYKQAompn-UwXVe-1" target="UY9DITYKQAompn-UwXVe-5">
          <mxGeometry relative="1" as="geometry" />
        </mxCell>
        <mxCell id="UY9DITYKQAompn-UwXVe-1" value="Cliente" style="shape=umlActor;verticalLabelPosition=bottom;verticalAlign=top;html=1;" vertex="1" parent="1">
          <mxGeometry x="-160" y="-400" width="30" height="60" as="geometry" />
        </mxCell>
        <mxCell id="UY9DITYKQAompn-UwXVe-38" value="" style="swimlane;startSize=0;" vertex="1" parent="1">
          <mxGeometry x="-60" y="-710" width="800" height="680" as="geometry">
            <mxRectangle x="-60" y="-710" width="50" height="40" as="alternateBounds" />
          </mxGeometry>
        </mxCell>
        <mxCell id="UY9DITYKQAompn-UwXVe-39" value="Website" style="text;html=1;align=center;verticalAlign=middle;resizable=0;points=[];autosize=1;strokeColor=none;fillColor=none;" vertex="1" parent="UY9DITYKQAompn-UwXVe-38">
          <mxGeometry x="710" y="8" width="70" height="30" as="geometry" />
        </mxCell>
        <mxCell id="I5_FkPABJrjS-Rx3a09a-6" style="edgeStyle=orthogonalEdgeStyle;rounded=0;orthogonalLoop=1;jettySize=auto;html=1;endArrow=none;endFill=0;" edge="1" parent="UY9DITYKQAompn-UwXVe-38" source="UY9DITYKQAompn-UwXVe-3" target="I5_FkPABJrjS-Rx3a09a-5">
          <mxGeometry relative="1" as="geometry" />
        </mxCell>
        <mxCell id="UY9DITYKQAompn-UwXVe-3" value="Recuperar contrase침a" style="ellipse;whiteSpace=wrap;html=1;" vertex="1" parent="UY9DITYKQAompn-UwXVe-38">
          <mxGeometry x="60" y="490" width="140" height="70" as="geometry" />
        </mxCell>
        <mxCell id="j46p12jNmcbfrppGY4FV-15" style="edgeStyle=orthogonalEdgeStyle;rounded=0;orthogonalLoop=1;jettySize=auto;html=1;entryX=0;entryY=0.5;entryDx=0;entryDy=0;endArrow=none;endFill=0;" edge="1" parent="UY9DITYKQAompn-UwXVe-38" source="UY9DITYKQAompn-UwXVe-5" target="UY9DITYKQAompn-UwXVe-30">
          <mxGeometry relative="1" as="geometry" />
        </mxCell>
        <mxCell id="UY9DITYKQAompn-UwXVe-5" value="Auntenticarse" style="ellipse;whiteSpace=wrap;html=1;noLabel=0;" vertex="1" parent="UY9DITYKQAompn-UwXVe-38">
          <mxGeometry x="60" y="135" width="140" height="70" as="geometry" />
        </mxCell>
        <mxCell id="UY9DITYKQAompn-UwXVe-6" value="Registrar dispositivo" style="ellipse;whiteSpace=wrap;html=1;" vertex="1" parent="UY9DITYKQAompn-UwXVe-38">
          <mxGeometry x="540" y="100" width="140" height="70" as="geometry" />
        </mxCell>
        <mxCell id="UY9DITYKQAompn-UwXVe-8" value="Eliminar dispositivo" style="ellipse;whiteSpace=wrap;html=1;" vertex="1" parent="UY9DITYKQAompn-UwXVe-38">
          <mxGeometry x="540" y="180" width="140" height="70" as="geometry" />
        </mxCell>
        <mxCell id="UY9DITYKQAompn-UwXVe-35" style="rounded=0;orthogonalLoop=1;jettySize=auto;html=1;entryX=0;entryY=0.5;entryDx=0;entryDy=0;dashed=1;startArrow=classic;startFill=1;endArrow=none;endFill=0;exitX=1;exitY=1;exitDx=0;exitDy=0;" edge="1" parent="UY9DITYKQAompn-UwXVe-38" source="UY9DITYKQAompn-UwXVe-9" target="UY9DITYKQAompn-UwXVe-10">
          <mxGeometry relative="1" as="geometry" />
        </mxCell>
        <mxCell id="UY9DITYKQAompn-UwXVe-36" value="&amp;lt;&amp;lt;include&amp;gt;&amp;gt;" style="edgeLabel;html=1;align=center;verticalAlign=middle;resizable=0;points=[];" connectable="0" vertex="1" parent="UY9DITYKQAompn-UwXVe-35">
          <mxGeometry x="0.0533" y="2" relative="1" as="geometry">
            <mxPoint as="offset" />
          </mxGeometry>
        </mxCell>
        <mxCell id="j46p12jNmcbfrppGY4FV-32" style="rounded=0;orthogonalLoop=1;jettySize=auto;html=1;entryX=1;entryY=0.5;entryDx=0;entryDy=0;flowAnimation=0;shadow=0;jumpStyle=none;exitX=0;exitY=0.5;exitDx=0;exitDy=0;elbow=vertical;endArrow=none;endFill=0;" edge="1" parent="UY9DITYKQAompn-UwXVe-38" source="UY9DITYKQAompn-UwXVe-9" target="UY9DITYKQAompn-UwXVe-5">
          <mxGeometry relative="1" as="geometry" />
        </mxCell>
        <mxCell id="UY9DITYKQAompn-UwXVe-9" value="Actualizar informaci칩n personal" style="ellipse;whiteSpace=wrap;html=1;" vertex="1" parent="UY9DITYKQAompn-UwXVe-38">
          <mxGeometry x="280" y="390" width="140" height="70" as="geometry" />
        </mxCell>
        <mxCell id="UY9DITYKQAompn-UwXVe-10" value="Actualizar contrase침a" style="ellipse;whiteSpace=wrap;html=1;" vertex="1" parent="UY9DITYKQAompn-UwXVe-38">
          <mxGeometry x="540" y="510" width="140" height="70" as="geometry" />
        </mxCell>
        <mxCell id="UY9DITYKQAompn-UwXVe-31" style="rounded=0;orthogonalLoop=1;jettySize=auto;html=1;dashed=1;startArrow=classic;startFill=1;endArrow=none;endFill=0;exitX=0.978;exitY=0.298;exitDx=0;exitDy=0;exitPerimeter=0;" edge="1" parent="UY9DITYKQAompn-UwXVe-38" source="UY9DITYKQAompn-UwXVe-30" target="UY9DITYKQAompn-UwXVe-6">
          <mxGeometry relative="1" as="geometry" />
        </mxCell>
        <mxCell id="UY9DITYKQAompn-UwXVe-33" value="&amp;lt;&amp;lt;include&amp;gt;&amp;gt;" style="edgeLabel;html=1;align=center;verticalAlign=middle;resizable=0;points=[];" connectable="0" vertex="1" parent="UY9DITYKQAompn-UwXVe-31">
          <mxGeometry x="-0.174" y="1" relative="1" as="geometry">
            <mxPoint as="offset" />
          </mxGeometry>
        </mxCell>
        <mxCell id="UY9DITYKQAompn-UwXVe-32" style="rounded=0;orthogonalLoop=1;jettySize=auto;html=1;dashed=1;startArrow=classic;startFill=1;endArrow=none;endFill=0;exitX=0.999;exitY=0.491;exitDx=0;exitDy=0;exitPerimeter=0;" edge="1" parent="UY9DITYKQAompn-UwXVe-38" source="UY9DITYKQAompn-UwXVe-30" target="UY9DITYKQAompn-UwXVe-8">
          <mxGeometry relative="1" as="geometry" />
        </mxCell>
        <mxCell id="UY9DITYKQAompn-UwXVe-34" value="&amp;lt;&amp;lt;include&amp;gt;&amp;gt;" style="edgeLabel;html=1;align=center;verticalAlign=middle;resizable=0;points=[];" connectable="0" vertex="1" parent="UY9DITYKQAompn-UwXVe-32">
          <mxGeometry x="0.0216" y="-1" relative="1" as="geometry">
            <mxPoint as="offset" />
          </mxGeometry>
        </mxCell>
        <mxCell id="a-UGdXaP6SHZQmlNzmEN-2" value="&amp;lt;&amp;lt;include&amp;gt;&amp;gt;" style="rounded=0;orthogonalLoop=1;jettySize=auto;html=1;entryX=0;entryY=0.5;entryDx=0;entryDy=0;dashed=1;startArrow=classic;startFill=1;endArrow=none;endFill=0;exitX=1;exitY=0;exitDx=0;exitDy=0;" edge="1" parent="UY9DITYKQAompn-UwXVe-38" source="UY9DITYKQAompn-UwXVe-30" target="a-UGdXaP6SHZQmlNzmEN-1">
          <mxGeometry relative="1" as="geometry" />
        </mxCell>
        <mxCell id="UY9DITYKQAompn-UwXVe-30" value="Administrar dispositivos" style="ellipse;whiteSpace=wrap;html=1;" vertex="1" parent="UY9DITYKQAompn-UwXVe-38">
          <mxGeometry x="280" y="135" width="140" height="70" as="geometry" />
        </mxCell>
        <mxCell id="a-UGdXaP6SHZQmlNzmEN-1" value="Definir Limite de Consumo" style="ellipse;whiteSpace=wrap;html=1;" vertex="1" parent="UY9DITYKQAompn-UwXVe-38">
          <mxGeometry x="540" y="20" width="140" height="70" as="geometry" />
        </mxCell>
        <mxCell id="j46p12jNmcbfrppGY4FV-1" value="Ajustar notificiaciones" style="ellipse;whiteSpace=wrap;html=1;" vertex="1" parent="UY9DITYKQAompn-UwXVe-38">
          <mxGeometry x="280" y="305" width="140" height="70" as="geometry" />
        </mxCell>
        <mxCell id="j46p12jNmcbfrppGY4FV-4" value="&lt;div&gt;Cerrar sesion&lt;/div&gt;" style="ellipse;whiteSpace=wrap;html=1;noLabel=0;" vertex="1" parent="UY9DITYKQAompn-UwXVe-38">
          <mxGeometry x="280" y="50" width="140" height="70" as="geometry" />
        </mxCell>
        <mxCell id="j46p12jNmcbfrppGY4FV-6" value="Actualizar informaci칩n personal" style="ellipse;whiteSpace=wrap;html=1;" vertex="1" parent="UY9DITYKQAompn-UwXVe-38">
          <mxGeometry x="540" y="430" width="140" height="70" as="geometry" />
        </mxCell>
        <mxCell id="j46p12jNmcbfrppGY4FV-7" value="&amp;lt;&amp;lt;include&amp;gt;&amp;gt;" style="rounded=0;orthogonalLoop=1;jettySize=auto;html=1;entryX=0;entryY=0.5;entryDx=0;entryDy=0;dashed=1;startArrow=classic;startFill=1;endArrow=none;endFill=0;exitX=1;exitY=0.5;exitDx=0;exitDy=0;" edge="1" parent="UY9DITYKQAompn-UwXVe-38" source="UY9DITYKQAompn-UwXVe-5" target="j46p12jNmcbfrppGY4FV-4">
          <mxGeometry relative="1" as="geometry">
            <mxPoint x="128" y="226" as="sourcePoint" />
            <mxPoint x="280" y="110" as="targetPoint" />
          </mxGeometry>
        </mxCell>
        <mxCell id="j46p12jNmcbfrppGY4FV-35" style="rounded=0;orthogonalLoop=1;jettySize=auto;html=1;entryX=1;entryY=0.5;entryDx=0;entryDy=0;exitX=0;exitY=0.5;exitDx=0;exitDy=0;endArrow=none;endFill=0;" edge="1" parent="UY9DITYKQAompn-UwXVe-38" source="j46p12jNmcbfrppGY4FV-9" target="UY9DITYKQAompn-UwXVe-5">
          <mxGeometry relative="1" as="geometry" />
        </mxCell>
        <mxCell id="j46p12jNmcbfrppGY4FV-9" value="Visualizar dashboard" style="ellipse;whiteSpace=wrap;html=1;" vertex="1" parent="UY9DITYKQAompn-UwXVe-38">
          <mxGeometry x="280" y="220" width="140" height="70" as="geometry" />
        </mxCell>
        <mxCell id="j46p12jNmcbfrppGY4FV-37" style="rounded=0;orthogonalLoop=1;jettySize=auto;html=1;entryX=0;entryY=0.5;entryDx=0;entryDy=0;dashed=1;startArrow=classic;startFill=1;endArrow=none;endFill=0;exitX=1;exitY=0.5;exitDx=0;exitDy=0;" edge="1" parent="UY9DITYKQAompn-UwXVe-38" source="UY9DITYKQAompn-UwXVe-9" target="j46p12jNmcbfrppGY4FV-6">
          <mxGeometry relative="1" as="geometry">
            <mxPoint x="406" y="361" as="sourcePoint" />
            <mxPoint x="550" y="445" as="targetPoint" />
          </mxGeometry>
        </mxCell>
        <mxCell id="j46p12jNmcbfrppGY4FV-38" value="&amp;lt;&amp;lt;include&amp;gt;&amp;gt;" style="edgeLabel;html=1;align=center;verticalAlign=middle;resizable=0;points=[];" connectable="0" vertex="1" parent="j46p12jNmcbfrppGY4FV-37">
          <mxGeometry x="0.0533" y="2" relative="1" as="geometry">
            <mxPoint as="offset" />
          </mxGeometry>
        </mxCell>
        <mxCell id="j46p12jNmcbfrppGY4FV-160" value="Actualizar nombre dispositivo" style="ellipse;whiteSpace=wrap;html=1;" vertex="1" parent="UY9DITYKQAompn-UwXVe-38">
          <mxGeometry x="540" y="260" width="140" height="70" as="geometry" />
        </mxCell>
        <mxCell id="j46p12jNmcbfrppGY4FV-162" style="rounded=0;orthogonalLoop=1;jettySize=auto;html=1;dashed=1;startArrow=classic;startFill=1;endArrow=none;endFill=0;exitX=0.968;exitY=0.731;exitDx=0;exitDy=0;entryX=0;entryY=0.5;entryDx=0;entryDy=0;exitPerimeter=0;" edge="1" parent="UY9DITYKQAompn-UwXVe-38" source="UY9DITYKQAompn-UwXVe-30" target="j46p12jNmcbfrppGY4FV-160">
          <mxGeometry relative="1" as="geometry">
            <mxPoint x="430" y="179" as="sourcePoint" />
            <mxPoint x="557" y="210" as="targetPoint" />
          </mxGeometry>
        </mxCell>
        <mxCell id="j46p12jNmcbfrppGY4FV-163" value="&amp;lt;&amp;lt;include&amp;gt;&amp;gt;" style="edgeLabel;html=1;align=center;verticalAlign=middle;resizable=0;points=[];" connectable="0" vertex="1" parent="j46p12jNmcbfrppGY4FV-162">
          <mxGeometry x="0.0216" y="-1" relative="1" as="geometry">
            <mxPoint as="offset" />
          </mxGeometry>
        </mxCell>
        <mxCell id="j46p12jNmcbfrppGY4FV-164" value="Actualizar descripci칩n dispositivo" style="ellipse;whiteSpace=wrap;html=1;" vertex="1" parent="UY9DITYKQAompn-UwXVe-38">
          <mxGeometry x="540" y="340" width="140" height="70" as="geometry" />
        </mxCell>
        <mxCell id="j46p12jNmcbfrppGY4FV-165" style="rounded=0;orthogonalLoop=1;jettySize=auto;html=1;dashed=1;startArrow=classic;startFill=1;endArrow=none;endFill=0;exitX=1;exitY=1;exitDx=0;exitDy=0;entryX=0;entryY=0.5;entryDx=0;entryDy=0;" edge="1" parent="UY9DITYKQAompn-UwXVe-38" source="UY9DITYKQAompn-UwXVe-30" target="j46p12jNmcbfrppGY4FV-164">
          <mxGeometry relative="1" as="geometry">
            <mxPoint x="430" y="180" as="sourcePoint" />
            <mxPoint x="550" y="305" as="targetPoint" />
          </mxGeometry>
        </mxCell>
        <mxCell id="j46p12jNmcbfrppGY4FV-166" value="&amp;lt;&amp;lt;include&amp;gt;&amp;gt;" style="edgeLabel;html=1;align=center;verticalAlign=middle;resizable=0;points=[];" connectable="0" vertex="1" parent="j46p12jNmcbfrppGY4FV-165">
          <mxGeometry x="0.0216" y="-1" relative="1" as="geometry">
            <mxPoint as="offset" />
          </mxGeometry>
        </mxCell>
        <mxCell id="I5_FkPABJrjS-Rx3a09a-2" value="Registrarse" style="ellipse;whiteSpace=wrap;html=1;" vertex="1" parent="UY9DITYKQAompn-UwXVe-38">
          <mxGeometry x="60" y="305" width="140" height="70" as="geometry" />
        </mxCell>
        <mxCell id="I5_FkPABJrjS-Rx3a09a-1" style="rounded=0;orthogonalLoop=1;jettySize=auto;html=1;entryX=0;entryY=0.5;entryDx=0;entryDy=0;endArrow=none;endFill=0;" edge="1" parent="UY9DITYKQAompn-UwXVe-38" source="UY9DITYKQAompn-UwXVe-1">
          <mxGeometry relative="1" as="geometry">
            <mxPoint x="-60" y="341.5" as="sourcePoint" />
            <mxPoint x="60.00000000000318" y="338.5" as="targetPoint" />
          </mxGeometry>
        </mxCell>
        <mxCell id="I5_FkPABJrjS-Rx3a09a-8" style="rounded=0;orthogonalLoop=1;jettySize=auto;html=1;entryX=0;entryY=0.5;entryDx=0;entryDy=0;endArrow=none;endFill=0;exitX=0.5;exitY=1;exitDx=0;exitDy=0;" edge="1" parent="UY9DITYKQAompn-UwXVe-38" source="I5_FkPABJrjS-Rx3a09a-5" target="I5_FkPABJrjS-Rx3a09a-7">
          <mxGeometry relative="1" as="geometry" />
        </mxCell>
        <mxCell id="I5_FkPABJrjS-Rx3a09a-5" value="Recibir correo" style="ellipse;whiteSpace=wrap;html=1;" vertex="1" parent="UY9DITYKQAompn-UwXVe-38">
          <mxGeometry x="250" y="490" width="140" height="70" as="geometry" />
        </mxCell>
        <mxCell id="I5_FkPABJrjS-Rx3a09a-7" value="Crear nueva contrase침a" style="ellipse;whiteSpace=wrap;html=1;" vertex="1" parent="UY9DITYKQAompn-UwXVe-38">
          <mxGeometry x="390" y="580" width="140" height="70" as="geometry" />
        </mxCell>
        <mxCell id="j46p12jNmcbfrppGY4FV-129" style="rounded=0;orthogonalLoop=1;jettySize=auto;html=1;entryX=0;entryY=0.5;entryDx=0;entryDy=0;endArrow=none;endFill=0;" edge="1" parent="1" source="j46p12jNmcbfrppGY4FV-131" target="j46p12jNmcbfrppGY4FV-134">
          <mxGeometry relative="1" as="geometry" />
        </mxCell>
        <mxCell id="j46p12jNmcbfrppGY4FV-131" value="Cliente" style="shape=umlActor;verticalLabelPosition=bottom;verticalAlign=top;html=1;" vertex="1" parent="1">
          <mxGeometry x="-170" y="140" width="30" height="60" as="geometry" />
        </mxCell>
        <mxCell id="j46p12jNmcbfrppGY4FV-132" value="" style="swimlane;startSize=0;" vertex="1" parent="1">
          <mxGeometry x="-60" width="720" height="280" as="geometry">
            <mxRectangle x="-60" y="-710" width="50" height="40" as="alternateBounds" />
          </mxGeometry>
        </mxCell>
        <mxCell id="j46p12jNmcbfrppGY4FV-133" value="Dispositivo" style="text;html=1;align=center;verticalAlign=middle;resizable=0;points=[];autosize=1;strokeColor=none;fillColor=none;" vertex="1" parent="j46p12jNmcbfrppGY4FV-132">
          <mxGeometry x="620" y="20" width="80" height="30" as="geometry" />
        </mxCell>
        <mxCell id="j46p12jNmcbfrppGY4FV-159" style="edgeStyle=orthogonalEdgeStyle;rounded=0;orthogonalLoop=1;jettySize=auto;html=1;entryX=0;entryY=0.5;entryDx=0;entryDy=0;endArrow=none;endFill=0;" edge="1" parent="j46p12jNmcbfrppGY4FV-132" source="j46p12jNmcbfrppGY4FV-134" target="j46p12jNmcbfrppGY4FV-151">
          <mxGeometry relative="1" as="geometry" />
        </mxCell>
        <mxCell id="j46p12jNmcbfrppGY4FV-134" value="Registrar dispositivo" style="ellipse;whiteSpace=wrap;html=1;" vertex="1" parent="j46p12jNmcbfrppGY4FV-132">
          <mxGeometry x="50" y="135" width="140" height="70" as="geometry" />
        </mxCell>
        <mxCell id="j46p12jNmcbfrppGY4FV-151" value="Digitar codigo " style="ellipse;whiteSpace=wrap;html=1;" vertex="1" parent="j46p12jNmcbfrppGY4FV-132">
          <mxGeometry x="270" y="135" width="140" height="70" as="geometry" />
        </mxCell>
        <mxCell id="j46p12jNmcbfrppGY4FV-153" value="Cambiar nombre del dispositivo" style="ellipse;whiteSpace=wrap;html=1;" vertex="1" parent="j46p12jNmcbfrppGY4FV-132">
          <mxGeometry x="530" y="135" width="140" height="70" as="geometry" />
        </mxCell>
        <mxCell id="j46p12jNmcbfrppGY4FV-157" style="rounded=0;orthogonalLoop=1;jettySize=auto;html=1;entryX=0;entryY=0.5;entryDx=0;entryDy=0;dashed=1;startArrow=classic;startFill=1;endArrow=none;endFill=0;" edge="1" parent="j46p12jNmcbfrppGY4FV-132" source="j46p12jNmcbfrppGY4FV-151" target="j46p12jNmcbfrppGY4FV-153">
          <mxGeometry relative="1" as="geometry">
            <mxPoint x="420" y="425" as="sourcePoint" />
            <mxPoint x="550" y="445" as="targetPoint" />
          </mxGeometry>
        </mxCell>
        <mxCell id="j46p12jNmcbfrppGY4FV-158" value="&amp;lt;&amp;lt;include&amp;gt;&amp;gt;" style="edgeLabel;html=1;align=center;verticalAlign=middle;resizable=0;points=[];" connectable="0" vertex="1" parent="j46p12jNmcbfrppGY4FV-157">
          <mxGeometry x="0.0533" y="2" relative="1" as="geometry">
            <mxPoint as="offset" />
          </mxGeometry>
        </mxCell>
      </root>
    </mxGraphModel>
  </diagram>
</mxfile>
